<svg width="28" height="28" viewBox="0 0 28 28" fill="none" xmlns="http://www.w3.org/2000/svg">
<path fill-rule="evenodd" clip-rule="evenodd" d="M10.5216 5.44273C10.7158 3.69358 12.199 2.33334 14 2.33334C15.801 2.33334 17.2842 3.69358 17.4784 5.44274C20.2479 6.74847 22.1667 9.56557 22.1667 12.8333V16.5182C22.1667 16.8374 22.2935 17.1436 22.5192 17.3693L24.1583 19.0084C24.492 19.3421 24.5918 19.8439 24.4112 20.2798C24.2306 20.7158 23.8052 21 23.3333 21L18.6667 21C18.6667 23.5773 16.5773 25.6667 14 25.6667C11.4227 25.6667 9.33333 23.5773 9.33333 21L4.66667 21C4.19479 21 3.76938 20.7158 3.58881 20.2798C3.40823 19.8439 3.50804 19.3421 3.84171 19.0084L5.4808 17.3693C5.70652 17.1436 5.83333 16.8374 5.83333 16.5182V12.8333C5.83333 9.56557 7.75205 6.74846 10.5216 5.44273ZM11.6667 21C11.6667 22.2887 12.7113 23.3333 14 23.3333C15.2887 23.3333 16.3333 22.2887 16.3333 21H11.6667ZM14 4.66668C13.3557 4.66668 12.8333 5.18901 12.8333 5.83334V6.23166C12.8333 6.72611 12.5216 7.16687 12.0555 7.33164C9.78823 8.13299 8.16667 10.2953 8.16667 12.8333V16.5182C8.16667 17.299 7.90848 18.0532 7.43938 18.6667H20.5606C20.0915 18.0532 19.8333 17.299 19.8333 16.5182V12.8333C19.8333 10.2953 18.2118 8.13299 15.9445 7.33164C15.4784 7.16687 15.1667 6.72611 15.1667 6.23166V5.83334C15.1667 5.18901 14.6443 4.66668 14 4.66668Z" fill="#212121"/>
</svg>
