<svg width="28" height="28" viewBox="0 0 28 28" fill="none" xmlns="http://www.w3.org/2000/svg">
<path fill-rule="evenodd" clip-rule="evenodd" d="M6.17504 6.17505C6.63065 5.71944 7.36935 5.71944 7.82496 6.17505L14 12.3501L20.175 6.17505C20.6307 5.71944 21.3693 5.71944 21.825 6.17505C22.2806 6.63066 22.2806 7.36936 21.825 7.82497L15.6499 14L21.825 20.1751C22.2806 20.6307 22.2806 21.3694 21.825 21.825C21.3693 22.2806 20.6307 22.2806 20.175 21.825L14 15.6499L7.82496 21.825C7.36935 22.2806 6.63065 22.2806 6.17504 21.825C5.71943 21.3694 5.71943 20.6307 6.17504 20.1751L12.3501 14L6.17504 7.82497C5.71943 7.36936 5.71943 6.63066 6.17504 6.17505Z" fill="black"/>
</svg>
