<svg width="28" height="28" viewBox="0 0 32 32" fill="none" xmlns="http://www.w3.org/2000/svg">
<path fill-rule="evenodd" clip-rule="evenodd" d="M19.4037 4.14076C19.7791 3.95308 20.2209 3.95308 20.5963 4.14076L27.8592 7.77224C28.7627 8.22395 29.3333 9.14732 29.3333 10.1574V24.5093C29.3333 26.4916 27.2472 27.781 25.4741 26.8944L20 24.1574L12.5963 27.8592C12.2209 28.0469 11.7791 28.0469 11.4037 27.8592L4.14077 24.2278C3.23734 23.776 2.66667 22.8527 2.66667 21.8426V7.49071C2.66667 5.50836 4.75284 4.21904 6.52591 5.10557L12 7.84262L19.4037 4.14076ZM10.6667 10.1574L5.33334 7.49071V21.8426L10.6667 24.5093V10.1574ZM13.3333 24.5093L18.6667 21.8426V7.49071L13.3333 10.1574V24.5093ZM21.3333 7.49071V21.8426L26.6667 24.5093V10.1574L21.3333 7.49071Z" fill="#212121"/>
</svg>
