<svg width="32" height="32" viewBox="0 0 32 32" fill="none" xmlns="http://www.w3.org/2000/svg">
<path fill-rule="evenodd" clip-rule="evenodd" d="M18.75 6L13.25 10.7539V26L18.75 21.2461V6Z" fill="#212121"/>
<path fill-rule="evenodd" clip-rule="evenodd" d="M7.34727 8.02884C6.95402 7.68894 6.36261 7.58726 5.84881 7.77121C5.33501 7.95516 5 8.38852 5 8.86921V20.7539C5 21.0691 5.14487 21.3714 5.40273 21.5942L10.5 26V10.7539L7.34727 8.02884Z" fill="#212121"/>
<path fill-rule="evenodd" clip-rule="evenodd" d="M26.5973 10.4058L21.5 6V21.2461L24.6527 23.9712C25.046 24.3111 25.6374 24.4127 26.1512 24.2288C26.665 24.0448 27 23.6115 27 23.1308V11.2461C27 10.9309 26.8551 10.6286 26.5973 10.4058Z" fill="#212121"/>
</svg>
