<svg width="28" height="28" viewBox="0 0 32 32" fill="none" xmlns="http://www.w3.org/2000/svg">
<path fill-rule="evenodd" clip-rule="evenodd" d="M4 6.66667C4 5.19391 5.19391 4 6.66667 4H25.3333C26.8061 4 28 5.19391 28 6.66667V9.33333C28 10.8061 26.8061 12 25.3333 12H6.66667C5.19391 12 4 10.8061 4 9.33333V6.66667ZM25.3333 6.66667H6.66667V9.33333H25.3333V6.66667ZM4 17.3333C4 15.8606 5.19391 14.6667 6.66667 14.6667H14.6667C16.1394 14.6667 17.3333 15.8606 17.3333 17.3333V25.3333C17.3333 26.8061 16.1394 28 14.6667 28H6.66667C5.19391 28 4 26.8061 4 25.3333V17.3333ZM14.6667 17.3333H6.66667V25.3333H14.6667V17.3333ZM20 17.3333C20 15.8606 21.1939 14.6667 22.6667 14.6667H25.3333C26.8061 14.6667 28 15.8606 28 17.3333V25.3333C28 26.8061 26.8061 28 25.3333 28H22.6667C21.1939 28 20 26.8061 20 25.3333V17.3333ZM25.3333 17.3333H22.6667V25.3333H25.3333V17.3333Z" fill="#212121"/>
</svg>
