<svg width="28" height="28" viewBox="0 0 32 32" fill="none" xmlns="http://www.w3.org/2000/svg">
<path d="M4.8 6.4C4.8 5.51634 5.51635 4.8 6.4 4.8H25.6C26.4837 4.8 27.2 5.51634 27.2 6.4V9.6C27.2 10.4837 26.4837 11.2 25.6 11.2H6.4C5.51635 11.2 4.8 10.4837 4.8 9.6V6.4Z" fill="#212121"/>
<path d="M4.8 16C4.8 15.1163 5.51635 14.4 6.4 14.4H16C16.8837 14.4 17.6 15.1163 17.6 16V25.6C17.6 26.4837 16.8837 27.2 16 27.2H6.4C5.51635 27.2 4.8 26.4837 4.8 25.6V16Z" fill="#212121"/>
<path d="M22.4 14.4C21.5163 14.4 20.8 15.1163 20.8 16V25.6C20.8 26.4837 21.5163 27.2 22.4 27.2H25.6C26.4837 27.2 27.2 26.4837 27.2 25.6V16C27.2 15.1163 26.4837 14.4 25.6 14.4H22.4Z" fill="#212121"/>
</svg>
