<svg width="28" height="28" viewBox="0 0 28 28" fill="none" xmlns="http://www.w3.org/2000/svg">
<path fill-rule="evenodd" clip-rule="evenodd" d="M14 25.6666C20.4433 25.6666 25.6667 20.4433 25.6667 14C25.6667 7.55666 20.4433 2.33331 14 2.33331C7.55667 2.33331 2.33333 7.55666 2.33333 14C2.33333 20.4433 7.55667 25.6666 14 25.6666ZM15.4583 8.16665C15.4583 7.36123 14.8054 6.70831 14 6.70831C13.1946 6.70831 12.5417 7.36123 12.5417 8.16665V14C12.5417 14.3868 12.6953 14.7577 12.9688 15.0312L17.0936 19.156C17.6631 19.7255 18.5865 19.7255 19.156 19.156C19.7255 18.5865 19.7255 17.6631 19.156 17.0936L15.4583 13.3959V8.16665Z" fill="#212121"/>
</svg>
