<svg width="28" height="28" viewBox="0 0 28 28" fill="none" xmlns="http://www.w3.org/2000/svg">
<path fill-rule="evenodd" clip-rule="evenodd" d="M14 4.66665C8.84534 4.66665 4.66666 8.84532 4.66666 14C4.66666 19.1546 8.84534 23.3333 14 23.3333C19.1547 23.3333 23.3333 19.1546 23.3333 14C23.3333 8.84532 19.1547 4.66665 14 4.66665ZM2.33333 14C2.33333 7.55666 7.55667 2.33331 14 2.33331C20.4433 2.33331 25.6667 7.55666 25.6667 14C25.6667 20.4433 20.4433 25.6666 14 25.6666C7.55667 25.6666 2.33333 20.4433 2.33333 14ZM14 8.16665C14.6443 8.16665 15.1667 8.68898 15.1667 9.33331V13.5167L18.325 16.675C18.7806 17.1306 18.7806 17.8693 18.325 18.3249C17.8693 18.7805 17.1306 18.7805 16.675 18.3249L13.175 14.8249C12.9562 14.6061 12.8333 14.3094 12.8333 14V9.33331C12.8333 8.68898 13.3557 8.16665 14 8.16665Z" fill="#212121"/>
</svg>
