<svg width="28" height="28" viewBox="0 0 28 28" fill="none" xmlns="http://www.w3.org/2000/svg">
<path fill-rule="evenodd" clip-rule="evenodd" d="M14 4.66668C8.84532 4.66668 4.66665 8.84535 4.66665 14C4.66665 19.1547 8.84532 23.3333 14 23.3333C19.1546 23.3333 23.3333 19.1547 23.3333 14C23.3333 8.84535 19.1546 4.66668 14 4.66668ZM2.33331 14C2.33331 7.55669 7.55666 2.33334 14 2.33334C20.4433 2.33334 25.6666 7.55669 25.6666 14C25.6666 20.4433 20.4433 25.6667 14 25.6667C7.55666 25.6667 2.33331 20.4433 2.33331 14ZM18.3249 10.8417C18.7806 11.2973 18.7806 12.036 18.3249 12.4916L13.6583 17.1583C13.2027 17.6139 12.464 17.6139 12.0084 17.1583L9.67502 14.825C9.21941 14.3694 9.21941 13.6307 9.67502 13.1751C10.1306 12.7194 10.8693 12.7194 11.3249 13.1751L12.8333 14.6834L16.675 10.8417C17.1306 10.3861 17.8693 10.3861 18.3249 10.8417Z" fill="currentColor"/>
</svg>
