<svg width="28" height="28" viewBox="0 0 28 28" fill="none" xmlns="http://www.w3.org/2000/svg">
<path fill-rule="evenodd" clip-rule="evenodd" d="M14 4.66668C8.84532 4.66668 4.66665 8.84535 4.66665 14C4.66665 19.1547 8.84532 23.3333 14 23.3333C19.1546 23.3333 23.3333 19.1547 23.3333 14C23.3333 8.84535 19.1546 4.66668 14 4.66668ZM2.33331 14C2.33331 7.55669 7.55666 2.33334 14 2.33334C20.4433 2.33334 25.6666 7.55669 25.6666 14C25.6666 20.4433 20.4433 25.6667 14 25.6667C7.55666 25.6667 2.33331 20.4433 2.33331 14ZM14 8.16668C14.6443 8.16668 15.1666 8.68901 15.1666 9.33334V14C15.1666 14.6443 14.6443 15.1667 14 15.1667C13.3556 15.1667 12.8333 14.6443 12.8333 14V9.33334C12.8333 8.68901 13.3556 8.16668 14 8.16668ZM12.8333 18.6667C12.8333 18.0223 13.3556 17.5 14 17.5H14.0116C14.656 17.5 15.1783 18.0223 15.1783 18.6667C15.1783 19.311 14.656 19.8333 14.0116 19.8333H14C13.3556 19.8333 12.8333 19.311 12.8333 18.6667Z" fill="currentColor"/>
</svg>
