<svg width="28" height="28" viewBox="0 0 28 28" fill="none" xmlns="http://www.w3.org/2000/svg">
<path fill-rule="evenodd" clip-rule="evenodd" d="M14 4.66668C8.84532 4.66668 4.66665 8.84535 4.66665 14C4.66665 19.1547 8.84532 23.3333 14 23.3333C19.1546 23.3333 23.3333 19.1547 23.3333 14C23.3333 8.84535 19.1546 4.66668 14 4.66668ZM2.33331 14C2.33331 7.55669 7.55666 2.33334 14 2.33334C20.4433 2.33334 25.6666 7.55669 25.6666 14C25.6666 20.4433 20.4433 25.6667 14 25.6667C7.55666 25.6667 2.33331 20.4433 2.33331 14ZM10.8417 10.8417C11.2973 10.3861 12.036 10.3861 12.4916 10.8417L14 12.3501L15.5084 10.8417C15.964 10.3861 16.7027 10.3861 17.1583 10.8417C17.6139 11.2973 17.6139 12.036 17.1583 12.4916L15.6499 14L17.1583 15.5084C17.6139 15.964 17.6139 16.7027 17.1583 17.1583C16.7027 17.6139 15.964 17.6139 15.5084 17.1583L14 15.6499L12.4916 17.1583C12.036 17.6139 11.2973 17.6139 10.8417 17.1583C10.3861 16.7027 10.3861 15.964 10.8417 15.5084L12.3501 14L10.8417 12.4916C10.3861 12.036 10.3861 11.2973 10.8417 10.8417Z" fill="currentColor"/>
</svg>
