<svg width="32" height="32" viewBox="0 0 32 32" fill="none" xmlns="http://www.w3.org/2000/svg">
<path d="M14.4 9.59999C14.4 12.251 12.251 14.4 9.60001 14.4C6.94904 14.4 4.80001 12.251 4.80001 9.59999C4.80001 6.94902 6.94904 4.79999 9.60001 4.79999C12.251 4.79999 14.4 6.94902 14.4 9.59999Z" fill="#212121"/>
<path d="M27.2 9.59999C27.2 12.251 25.051 14.4 22.4 14.4C19.749 14.4 17.6 12.251 17.6 9.59999C17.6 6.94902 19.749 4.79999 22.4 4.79999C25.051 4.79999 27.2 6.94902 27.2 9.59999Z" fill="#212121"/>
<path d="M20.6866 27.2C20.7614 26.6774 20.8 26.1432 20.8 25.6C20.8 22.9837 19.903 20.5769 18.3996 18.6705C19.5764 17.9897 20.9427 17.6 22.4 17.6C26.8183 17.6 30.4 21.1817 30.4 25.6V27.2H20.6866Z" fill="#212121"/>
<path d="M9.60001 17.6C14.0183 17.6 17.6 21.1817 17.6 25.6V27.2H1.60001V25.6C1.60001 21.1817 5.18173 17.6 9.60001 17.6Z" fill="#212121"/>
</svg>
