<svg width="32" height="32" viewBox="0 0 32 32" fill="none" xmlns="http://www.w3.org/2000/svg">
<path fill-rule="evenodd" clip-rule="evenodd" d="M12 5.33332C9.79087 5.33332 8 7.12418 8 9.33332C8 11.5425 9.79087 13.3333 12 13.3333C13.1887 13.3333 14.2563 12.8148 14.9889 11.9916C14.9958 11.9837 15.0028 11.9758 15.0099 11.9679C15.6264 11.2642 16 10.3424 16 9.33332C16 8.32423 15.6263 7.40241 15.0098 6.69868C15.0028 6.69087 14.9958 6.68299 14.989 6.67505C14.2563 5.85184 13.1887 5.33332 12 5.33332ZM16.0001 3.9996C14.8859 3.16262 13.5009 2.66666 12 2.66666C8.31811 2.66666 5.33334 5.65142 5.33334 9.33332C5.33334 13.0152 8.31811 16 12 16C13.5009 16 14.8859 15.504 16.0001 14.667C17.1138 15.5032 18.4994 16 20 16C23.6819 16 26.6667 13.0152 26.6667 9.33332C26.6667 5.65143 23.6819 2.66666 20 2.66666C18.4994 2.66666 17.1138 3.16343 16.0001 3.9996ZM17.7784 6.00623C18.3434 6.98539 18.6667 8.12161 18.6667 9.33332C18.6667 10.545 18.3434 11.6813 17.7784 12.6604C18.4142 13.0861 19.1778 13.3333 20 13.3333C22.2091 13.3333 24 11.5425 24 9.33332C24 7.12418 22.2091 5.33332 20 5.33332C19.1778 5.33332 18.4142 5.58058 17.7784 6.00623ZM12 20C8.31811 20 5.33334 22.9848 5.33334 26.6667H18.6667C18.6667 22.9848 15.6819 20 12 20ZM21.3333 26.6667H26.6667C26.6667 22.9848 23.6819 20 20 20C19.5425 20 19.0962 20.0459 18.6654 20.1334C20.3157 21.8169 21.3333 24.1229 21.3333 26.6667ZM16.0004 18.2317C14.7879 17.6556 13.4316 17.3333 12 17.3333C6.84535 17.3333 2.66667 21.512 2.66667 26.6667V28C2.66667 28.7364 3.26363 29.3333 4.00001 29.3333H28C28.7364 29.3333 29.3333 28.7364 29.3333 28V26.6667C29.3333 21.512 25.1547 17.3333 20 17.3333C18.5707 17.3333 17.2137 17.6555 16.0004 18.2317Z" fill="#212121"/>
</svg>
