<svg width="28" height="28" viewBox="0 0 28 28" fill="none" xmlns="http://www.w3.org/2000/svg">
<path fill-rule="evenodd" clip-rule="evenodd" d="M2.33334 7C2.33334 5.067 3.90034 3.5 5.83334 3.5H22.1667C24.0997 3.5 25.6667 5.067 25.6667 7V16.3333C25.6667 18.2663 24.0997 19.8333 22.1667 19.8333H19.1499L14.825 24.1583C14.3693 24.6139 13.6307 24.6139 13.175 24.1583L8.85009 19.8333H5.83334C3.90034 19.8333 2.33334 18.2663 2.33334 16.3333V7ZM5.83334 5.83333C5.189 5.83333 4.66667 6.35567 4.66667 7V16.3333C4.66667 16.9777 5.189 17.5 5.83334 17.5H9.33334C9.64276 17.5 9.9395 17.6229 10.1583 17.8417L14 21.6834L17.8417 17.8417C18.0605 17.6229 18.3573 17.5 18.6667 17.5H22.1667C22.811 17.5 23.3333 16.9777 23.3333 16.3333V7C23.3333 6.35567 22.811 5.83333 22.1667 5.83333H5.83334ZM7 9.33333C7 8.689 7.52234 8.16667 8.16667 8.16667H19.8333C20.4777 8.16667 21 8.689 21 9.33333C21 9.97767 20.4777 10.5 19.8333 10.5H8.16667C7.52234 10.5 7 9.97767 7 9.33333ZM7 14C7 13.3557 7.52234 12.8333 8.16667 12.8333H12.8333C13.4777 12.8333 14 13.3557 14 14C14 14.6443 13.4777 15.1667 12.8333 15.1667H8.16667C7.52234 15.1667 7 14.6443 7 14Z" fill="currentColor"/>
</svg>
