<svg width="32" height="32" viewBox="0 0 32 32" fill="none" xmlns="http://www.w3.org/2000/svg">
<path fill-rule="evenodd" clip-rule="evenodd" d="M8.30769 8.22222C7.11816 8.22222 6.15385 9.21715 6.15385 10.4444V21.5556C6.15385 22.7829 7.11816 23.7778 8.30769 23.7778H13.6923C14.8818 23.7778 15.8462 22.7829 15.8462 21.5556V20.4444C15.8462 19.8308 16.3283 19.3333 16.9231 19.3333C17.5178 19.3333 18 19.8308 18 20.4444V21.5556C18 24.0102 16.0714 26 13.6923 26H8.30769C5.92862 26 4 24.0102 4 21.5556V10.4444C4 7.98985 5.92862 6 8.30769 6L13.6923 6C16.0714 6 18 7.98985 18 10.4444V11.5556C18 12.1692 17.5178 12.6667 16.9231 12.6667C16.3283 12.6667 15.8462 12.1692 15.8462 11.5556V10.4444C15.8462 9.21715 14.8818 8.22222 13.6923 8.22222H8.30769Z" fill="#212121"/>
<path fill-rule="evenodd" clip-rule="evenodd" d="M21.5795 10.3515C21.1402 10.8201 21.1402 11.5799 21.5795 12.0485L24.159 14.8L11.125 14.8C10.5037 14.8 10 15.3373 10 16C10 16.6627 10.5037 17.2 11.125 17.2L24.159 17.2L21.5795 19.9515C21.1402 20.4201 21.1402 21.1799 21.5795 21.6485C22.0188 22.1172 22.7312 22.1172 23.1705 21.6485L27.6705 16.8485C28.1098 16.3799 28.1098 15.6201 27.6705 15.1515L23.1705 10.3515C22.7312 9.88284 22.0188 9.88284 21.5795 10.3515Z" fill="#212121"/>
</svg>
