<svg width="32" height="32" viewBox="0 0 32 32" fill="none" xmlns="http://www.w3.org/2000/svg">
<path fill-rule="evenodd" clip-rule="evenodd" d="M10.6667 5.33335C10.6667 3.86059 11.8606 2.66669 13.3333 2.66669H18.6667C20.1394 2.66669 21.3333 3.86059 21.3333 5.33335V8.00002H25.3196C25.3278 7.99994 25.3361 7.99994 25.3443 8.00002H26.6667C27.403 8.00002 28 8.59697 28 9.33335C28 10.0697 27.403 10.6667 26.6667 10.6667H26.5748L25.5069 25.6183C25.3573 27.7116 23.6156 29.3334 21.517 29.3334H10.483C8.38443 29.3334 6.64267 27.7116 6.49315 25.6183L5.42517 10.6667H5.33333C4.59695 10.6667 4 10.0697 4 9.33335C4 8.59697 4.59695 8.00002 5.33333 8.00002H6.65566C6.66393 7.99994 6.67219 7.99994 6.68043 8.00002H10.6667V5.33335ZM8.09864 10.6667L9.15304 25.4283C9.20288 26.1261 9.78347 26.6667 10.483 26.6667H21.517C22.2165 26.6667 22.7971 26.1261 22.847 25.4283L23.9014 10.6667H8.09864ZM18.6667 8.00002H13.3333V5.33335H18.6667V8.00002ZM13.3333 13.3334C14.0697 13.3334 14.6667 13.9303 14.6667 14.6667V22.6667C14.6667 23.4031 14.0697 24 13.3333 24C12.597 24 12 23.4031 12 22.6667V14.6667C12 13.9303 12.597 13.3334 13.3333 13.3334ZM18.6667 13.3334C19.403 13.3334 20 13.9303 20 14.6667V22.6667C20 23.4031 19.403 24 18.6667 24C17.9303 24 17.3333 23.4031 17.3333 22.6667V14.6667C17.3333 13.9303 17.9303 13.3334 18.6667 13.3334Z" fill="currentColor"/>
</svg>
