<svg width="28" height="28" viewBox="0 0 28 28" fill="none" xmlns="http://www.w3.org/2000/svg">
<path d="M14 2.79999C9.36085 2.79999 5.60004 6.5608 5.60004 11.2V16.2201L4.61009 17.21C4.20969 17.6104 4.08992 18.2126 4.30661 18.7357C4.5233 19.2589 5.03379 19.6 5.60004 19.6H22.4C22.9663 19.6 23.4768 19.2589 23.6935 18.7357C23.9102 18.2126 23.7904 17.6104 23.39 17.21L22.4 16.2201V11.2C22.4 6.5608 18.6392 2.79999 14 2.79999Z" fill="black"/>
<path d="M14 25.2C11.6804 25.2 9.8 23.3196 9.8 21H18.2C18.2 23.3196 16.3196 25.2 14 25.2Z" fill="black"/>
</svg>
