<svg width="28" height="28" viewBox="0 0 28 28" fill="none" xmlns="http://www.w3.org/2000/svg">
<path fill-rule="evenodd" clip-rule="evenodd" d="M4.2 7.00001C4.2 6.22681 4.8268 5.60001 5.6 5.60001H22.4C23.1732 5.60001 23.8 6.22681 23.8 7.00001C23.8 7.7732 23.1732 8.40001 22.4 8.40001H5.6C4.8268 8.40001 4.2 7.7732 4.2 7.00001Z" fill="#212121"/>
<path fill-rule="evenodd" clip-rule="evenodd" d="M4.2 14C4.2 13.2268 4.8268 12.6 5.6 12.6H22.4C23.1732 12.6 23.8 13.2268 23.8 14C23.8 14.7732 23.1732 15.4 22.4 15.4H5.6C4.8268 15.4 4.2 14.7732 4.2 14Z" fill="#212121"/>
<path fill-rule="evenodd" clip-rule="evenodd" d="M4.2 21C4.2 20.2268 4.8268 19.6 5.6 19.6H22.4C23.1732 19.6 23.8 20.2268 23.8 21C23.8 21.7732 23.1732 22.4 22.4 22.4H5.6C4.8268 22.4 4.2 21.7732 4.2 21Z" fill="#212121"/>
</svg>
