<svg width="28" height="28" viewBox="0 0 28 28" fill="none" xmlns="http://www.w3.org/2000/svg">
<path fill-rule="evenodd" clip-rule="evenodd" d="M10.9117 4.76162C11.6977 1.52389 16.3023 1.5239 17.0883 4.76162C17.2233 5.31754 17.8602 5.58136 18.3487 5.28369C21.1939 3.55007 24.4499 6.80605 22.7163 9.65126C22.4186 10.1398 22.6825 10.7767 23.2384 10.9117C26.4761 11.6977 26.4761 16.3023 23.2384 17.0883C22.6825 17.2233 22.4186 17.8602 22.7163 18.3487C24.4499 21.1939 21.1939 24.4499 18.3487 22.7163C17.8602 22.4186 17.2233 22.6825 17.0883 23.2384C16.3023 26.4761 11.6977 26.4761 10.9117 23.2384C10.7767 22.6825 10.1398 22.4186 9.65126 22.7163C6.80605 24.4499 3.55008 21.1939 5.28369 18.3487C5.58136 17.8602 5.31754 17.2233 4.76162 17.0883C1.5239 16.3023 1.52389 11.6977 4.76162 10.9117C5.31754 10.7767 5.58136 10.1398 5.28369 9.65126C3.55007 6.80605 6.80605 3.55007 9.65126 5.28369C10.1398 5.58136 10.7767 5.31754 10.9117 4.76162ZM14.8209 5.31209C14.6119 4.45152 13.388 4.45152 13.1791 5.31209C12.6714 7.40362 10.2751 8.39618 8.43716 7.27628C7.68092 6.81549 6.81549 7.68091 7.27628 8.43716C8.39618 10.2751 7.40362 12.6714 5.31209 13.1791C4.45152 13.388 4.45152 14.6119 5.31209 14.8209C7.40362 15.3286 8.39618 17.7249 7.27628 19.5628C6.81549 20.3191 7.68092 21.1845 8.43716 20.7237C10.2751 19.6038 12.6714 20.5964 13.1791 22.6879C13.388 23.5485 14.6119 23.5485 14.8209 22.6879C15.3286 20.5964 17.7249 19.6038 19.5628 20.7237C20.3191 21.1845 21.1845 20.3191 20.7237 19.5628C19.6038 17.7249 20.5964 15.3286 22.6879 14.8209C23.5485 14.6119 23.5485 13.388 22.6879 13.1791C20.5964 12.6714 19.6038 10.2751 20.7237 8.43716C21.1845 7.68091 20.3191 6.81549 19.5628 7.27628C17.7249 8.39618 15.3286 7.40362 14.8209 5.31209ZM14 11.6667C12.7113 11.6667 11.6667 12.7113 11.6667 14C11.6667 15.2887 12.7113 16.3333 14 16.3333C15.2887 16.3333 16.3333 15.2887 16.3333 14C16.3333 12.7113 15.2887 11.6667 14 11.6667ZM9.33333 14C9.33333 11.4227 11.4227 9.33333 14 9.33333C16.5773 9.33333 18.6667 11.4227 18.6667 14C18.6667 16.5773 16.5773 18.6667 14 18.6667C11.4227 18.6667 9.33333 16.5773 9.33333 14Z" fill="#212121"/>
</svg>
