<svg width="28" height="28" viewBox="0 0 28 28" fill="none" xmlns="http://www.w3.org/2000/svg">
<path fill-rule="evenodd" clip-rule="evenodd" d="M16.0849 4.43932C15.5543 2.25356 12.4457 2.25356 11.9151 4.43932C11.5723 5.85129 9.95463 6.52136 8.71383 5.76533C6.79306 4.59498 4.59498 6.79305 5.76533 8.71383C6.52136 9.95463 5.85129 11.5723 4.43932 11.9151C2.25356 12.4457 2.25356 15.5543 4.43932 16.0849C5.85129 16.4277 6.52136 18.0454 5.76533 19.2862C4.59498 21.2069 6.79306 23.405 8.71383 22.2347C9.95463 21.4786 11.5723 22.1487 11.9151 23.5607C12.4457 25.7464 15.5543 25.7464 16.0849 23.5607C16.4277 22.1487 18.0454 21.4786 19.2862 22.2347C21.207 23.405 23.405 21.2069 22.2347 19.2862C21.4786 18.0454 22.1487 16.4277 23.5607 16.0849C25.7464 15.5543 25.7464 12.4457 23.5607 11.9151C22.1487 11.5723 21.4786 9.95463 22.2347 8.71383C23.405 6.79306 21.207 4.59498 19.2862 5.76533C18.0454 6.52136 16.4277 5.85129 16.0849 4.43932ZM14 18.2C16.3196 18.2 18.2 16.3196 18.2 14C18.2 11.6804 16.3196 9.8 14 9.8C11.6804 9.8 9.8 11.6804 9.8 14C9.8 16.3196 11.6804 18.2 14 18.2Z" fill="#212121"/>
</svg>
