<svg width="28" height="28" viewBox="0 0 28 28" fill="none" xmlns="http://www.w3.org/2000/svg">
<path fill-rule="evenodd" clip-rule="evenodd" d="M7.92209 5.91031C6.35711 6.6928 5.83333 7.55795 5.83333 8.16665C5.83333 8.77534 6.35711 9.64049 7.92209 10.423C9.41728 11.1706 11.5645 11.6666 14 11.6666C16.4355 11.6666 18.5827 11.1706 20.0779 10.423C21.6429 9.64049 22.1667 8.77534 22.1667 8.16665C22.1667 7.55795 21.6429 6.6928 20.0779 5.91031C18.5827 5.16271 16.4355 4.66665 14 4.66665C11.5645 4.66665 9.41728 5.16271 7.92209 5.91031ZM22.1667 11.9007C21.8351 12.1259 21.4832 12.3291 21.1214 12.51C19.2386 13.4514 16.7192 14 14 14C11.2808 14 8.76139 13.4514 6.87859 12.51C6.51683 12.3291 6.16492 12.1259 5.83333 11.9007V14C5.83333 14.6087 6.35711 15.4738 7.92209 16.2563C9.41728 17.0039 11.5645 17.5 14 17.5C16.4355 17.5 18.5827 17.0039 20.0779 16.2563C21.6429 15.4738 22.1667 14.6087 22.1667 14V11.9007ZM24.5 8.16665C24.5 6.19802 22.9344 4.72983 21.1214 3.82332C19.2386 2.88191 16.7192 2.33331 14 2.33331C11.2808 2.33331 8.76139 2.88191 6.87859 3.82332C5.06556 4.72983 3.5 6.19802 3.5 8.16665V19.8333C3.5 21.8019 5.06556 23.2701 6.87859 24.1766C8.76139 25.118 11.2808 25.6666 14 25.6666C16.7192 25.6666 19.2386 25.118 21.1214 24.1766C22.9344 23.2701 24.5 21.8019 24.5 19.8333V8.16665ZM22.1667 17.7341C21.8351 17.9592 21.4832 18.1624 21.1214 18.3433C19.2386 19.2847 16.7192 19.8333 14 19.8333C11.2808 19.8333 8.76139 19.2847 6.87859 18.3433C6.51683 18.1624 6.16492 17.9592 5.83333 17.7341V19.8333C5.83333 20.442 6.35711 21.3072 7.92209 22.0896C9.41728 22.8372 11.5645 23.3333 14 23.3333C16.4355 23.3333 18.5827 22.8372 20.0779 22.0896C21.6429 21.3072 22.1667 20.442 22.1667 19.8333V17.7341Z" fill="black"/>
</svg>
