<svg width="28" height="28" viewBox="0 0 32 32" fill="none" xmlns="http://www.w3.org/2000/svg">
<path fill-rule="evenodd" clip-rule="evenodd" d="M4 8C4 5.79086 5.79086 4 8 4H24C26.2091 4 28 5.79086 28 8V24C28 26.2091 26.2091 28 24 28H8C5.79086 28 4 26.2091 4 24V8ZM8 6.66667C7.26362 6.66667 6.66667 7.26362 6.66667 8V24C6.66667 24.7364 7.26362 25.3333 8 25.3333H24C24.7364 25.3333 25.3333 24.7364 25.3333 24V8C25.3333 7.26362 24.7364 6.66667 24 6.66667H8ZM21.3333 9.33333C22.0697 9.33333 22.6667 9.93029 22.6667 10.6667V21.3333C22.6667 22.0697 22.0697 22.6667 21.3333 22.6667C20.597 22.6667 20 22.0697 20 21.3333V10.6667C20 9.93029 20.597 9.33333 21.3333 9.33333ZM16 13.3333C16.7364 13.3333 17.3333 13.9303 17.3333 14.6667V21.3333C17.3333 22.0697 16.7364 22.6667 16 22.6667C15.2636 22.6667 14.6667 22.0697 14.6667 21.3333V14.6667C14.6667 13.9303 15.2636 13.3333 16 13.3333ZM10.6667 17.3333C11.403 17.3333 12 17.9303 12 18.6667V21.3333C12 22.0697 11.403 22.6667 10.6667 22.6667C9.93029 22.6667 9.33333 22.0697 9.33333 21.3333V18.6667C9.33333 17.9303 9.93029 17.3333 10.6667 17.3333Z" fill="#212121"/>
</svg>
