<svg width="32" height="32" viewBox="0 0 32 32" fill="none" xmlns="http://www.w3.org/2000/svg">
<path fill-rule="evenodd" clip-rule="evenodd" d="M8 4.79999C6.23269 4.79999 4.8 6.23268 4.8 7.99999V24C4.8 25.7673 6.23269 27.2 8 27.2H24C25.7673 27.2 27.2 25.7673 27.2 24V7.99999C27.2 6.23268 25.7673 4.79999 24 4.79999H8ZM22.4 11.2C22.4 10.3163 21.6837 9.59999 20.8 9.59999C19.9163 9.59999 19.2 10.3163 19.2 11.2V20.8C19.2 21.6836 19.9163 22.4 20.8 22.4C21.6837 22.4 22.4 21.6836 22.4 20.8V11.2ZM17.6 14.4C17.6 13.5163 16.8837 12.8 16 12.8C15.1163 12.8 14.4 13.5163 14.4 14.4V20.8C14.4 21.6836 15.1163 22.4 16 22.4C16.8837 22.4 17.6 21.6836 17.6 20.8V14.4ZM12.8 19.2C12.8 18.3163 12.0837 17.6 11.2 17.6C10.3163 17.6 9.6 18.3163 9.6 19.2V20.8C9.6 21.6836 10.3163 22.4 11.2 22.4C12.0837 22.4 12.8 21.6836 12.8 20.8V19.2Z" fill="#212121"/>
</svg>
