<svg width="28" height="28" viewBox="0 0 28 28" fill="none" xmlns="http://www.w3.org/2000/svg">
<path fill-rule="evenodd" clip-rule="evenodd" d="M14 1.16667C15.6108 1.16667 16.9167 2.47251 16.9167 4.08334C16.9167 5.69417 15.6108 7.00001 14 7.00001C12.3892 7.00001 11.0833 5.69417 11.0833 4.08334C11.0833 2.47251 12.3892 1.16667 14 1.16667ZM14 11.375C15.6108 11.375 16.9167 12.6808 16.9167 14.2917C16.9167 15.9025 15.6108 17.2083 14 17.2083C12.3892 17.2083 11.0833 15.9025 11.0833 14.2917C11.0833 12.6808 12.3892 11.375 14 11.375ZM14 21.5833C15.6108 21.5833 16.9167 22.8892 16.9167 24.5C16.9167 26.1108 15.6108 27.4167 14 27.4167C12.3892 27.4167 11.0833 26.1108 11.0833 24.5C11.0833 22.8892 12.3892 21.5833 14 21.5833Z" fill="#212121"/>
</svg>
