<svg width="28" height="28" viewBox="0 0 28 28" fill="none" xmlns="http://www.w3.org/2000/svg">
<path fill-rule="evenodd" clip-rule="evenodd" d="M4.66668 14C4.66668 8.84538 8.84535 4.66671 14 4.66671C19.1547 4.66671 23.3333 8.84538 23.3333 14C23.3333 19.1547 19.1547 23.3334 14 23.3334C8.84535 23.3334 4.66668 19.1547 4.66668 14ZM14 2.33337C7.55669 2.33337 2.33334 7.55672 2.33334 14C2.33334 20.4434 7.55669 25.6667 14 25.6667C20.4433 25.6667 25.6667 20.4434 25.6667 14C25.6667 7.55672 20.4433 2.33337 14 2.33337ZM14.1127 7.00002C11.6378 7.00002 9.62501 8.81195 9.62501 11.039V11.4878C9.62501 11.7258 9.71957 11.9541 9.88789 12.1224C10.0562 12.2907 10.2845 12.3853 10.5226 12.3853C10.7606 12.3853 10.9889 12.2907 11.1572 12.1224C11.3255 11.9541 11.4201 11.7258 11.4201 11.4878V11.039C11.4201 9.80486 12.6284 8.79512 14.1127 8.79512C15.5971 8.79512 16.8054 9.80486 16.8054 11.039C16.8054 12.2731 15.5971 13.2829 14.1127 13.2829C13.8747 13.2829 13.6464 13.3774 13.4781 13.5457C13.3098 13.7141 13.2152 13.9424 13.2152 14.1804V15.078C13.2152 15.316 13.3098 15.5443 13.4781 15.7126C13.6464 15.8809 13.8747 15.9755 14.1127 15.9755C14.3508 15.9755 14.5791 15.8809 14.7474 15.7126C14.9157 15.5443 15.0103 15.316 15.0103 15.078V14.9972C17.0567 14.6213 18.6005 12.9889 18.6005 11.039C18.6005 8.81195 16.5877 7.00002 14.1127 7.00002ZM15.4591 19.1169C15.4591 19.3832 15.3801 19.6435 15.2322 19.8649C15.0842 20.0863 14.874 20.2589 14.628 20.3608C14.382 20.4627 14.1113 20.4893 13.8501 20.4374C13.5889 20.3854 13.349 20.2572 13.1608 20.0689C12.9725 19.8806 12.8442 19.6407 12.7923 19.3796C12.7403 19.1184 12.767 18.8477 12.8689 18.6017C12.9708 18.3557 13.1434 18.1454 13.3648 17.9975C13.5862 17.8496 13.8465 17.7706 14.1127 17.7706C14.4698 17.7706 14.8123 17.9124 15.0647 18.1649C15.3172 18.4174 15.4591 18.7599 15.4591 19.1169Z" fill="#212121"/>
</svg>
