<svg width="28" height="28" viewBox="0 0 28 28" fill="none" xmlns="http://www.w3.org/2000/svg">
<path fill-rule="evenodd" clip-rule="evenodd" d="M25.2 14C25.2 20.1856 20.1856 25.2 14 25.2C7.81441 25.2 2.8 20.1856 2.8 14C2.8 7.8144 7.81441 2.79999 14 2.79999C20.1856 2.79999 25.2 7.8144 25.2 14ZM14 9.79999C13.4836 9.79999 13.0306 10.0789 12.7865 10.501C12.3993 11.1703 11.5429 11.399 10.8736 11.0118C10.2043 10.6247 9.9756 9.76826 10.3628 9.09897C11.0869 7.84724 12.4437 6.99999 14 6.99999C16.3196 6.99999 18.2 8.88039 18.2 11.2C18.2 13.0287 17.0313 14.5844 15.4 15.161V15.4C15.4 16.1732 14.7732 16.8 14 16.8C13.2268 16.8 12.6 16.1732 12.6 15.4V14C12.6 13.2268 13.2268 12.6 14 12.6C14.7732 12.6 15.4 11.9732 15.4 11.2C15.4 10.4268 14.7732 9.79999 14 9.79999ZM14 21C14.7732 21 15.4 20.3732 15.4 19.6C15.4 18.8268 14.7732 18.2 14 18.2C13.2268 18.2 12.6 18.8268 12.6 19.6C12.6 20.3732 13.2268 21 14 21Z" fill="#212121"/>
</svg>
