<svg width="28" height="28" viewBox="0 0 28 28" fill="none" xmlns="http://www.w3.org/2000/svg">
<path d="M4.2 16.8V21C4.2 23.3196 8.58761 25.2 14 25.2C19.4124 25.2 23.8 23.3196 23.8 21V16.8C23.8 19.1196 19.4124 21 14 21C8.58761 21 4.2 19.1196 4.2 16.8Z" fill="black"/>
<path d="M4.2 9.79999V14C4.2 16.3196 8.58761 18.2 14 18.2C19.4124 18.2 23.8 16.3196 23.8 14V9.79999C23.8 12.1196 19.4124 14 14 14C8.58761 14 4.2 12.1196 4.2 9.79999Z" fill="black"/>
<path d="M23.8 6.99999C23.8 9.31958 19.4124 11.2 14 11.2C8.58761 11.2 4.2 9.31958 4.2 6.99999C4.2 4.68039 8.58761 2.79999 14 2.79999C19.4124 2.79999 23.8 4.68039 23.8 6.99999Z" fill="black"/>
</svg>
